<?xml version="1.0" encoding="UTF-8" standalone="no"?>
<svg
   xmlns:dc="http://purl.org/dc/elements/1.1/"
   xmlns:cc="http://creativecommons.org/ns#"
   xmlns:rdf="http://www.w3.org/1999/02/22-rdf-syntax-ns#"
   xmlns:svg="http://www.w3.org/2000/svg"
   xmlns="http://www.w3.org/2000/svg"
   xmlns:sodipodi="http://sodipodi.sourceforge.net/DTD/sodipodi-0.dtd"
   xmlns:inkscape="http://www.inkscape.org/namespaces/inkscape"
   sodipodi:docname="icon.svg"
   inkscape:version="1.0 (4035a4fb49, 2020-05-01)"
   id="svg8"
   version="1.1"
   viewBox="0 0 210 297"
   height="297mm"
   width="210mm">
  <defs
     id="defs2" />
  <sodipodi:namedview
     inkscape:window-maximized="1"
     inkscape:window-y="-11"
     inkscape:window-x="-11"
     inkscape:window-height="2066"
     inkscape:window-width="3840"
     showgrid="false"
     inkscape:document-rotation="0"
     inkscape:current-layer="layer1"
     inkscape:document-units="mm"
     inkscape:cy="379.75245"
     inkscape:cx="183.87832"
     inkscape:zoom="1.1607019"
     inkscape:pageshadow="2"
     inkscape:pageopacity="0.0"
     borderopacity="1.0"
     bordercolor="#666666"
     pagecolor="#ffffff"
     id="base" />
  <metadata
     id="metadata5">
    <rdf:RDF>
      <cc:Work
         rdf:about="">
        <dc:format>image/svg+xml</dc:format>
        <dc:type
           rdf:resource="http://purl.org/dc/dcmitype/StillImage" />
        <dc:title></dc:title>
      </cc:Work>
    </rdf:RDF>
  </metadata>
  <g
     id="layer1"
     inkscape:groupmode="layer"
     inkscape:label="Layer 1">
    <path
       style="fill:#070805;stroke-width:0.264583"
       d="m 132.03201,209.58541 c -1.1182,-0.22258 -2.26064,-0.67111 -3.04271,-1.1946 -1.71223,-1.1461 -4.22652,-3.87739 -4.59858,-4.99548 -0.16833,-0.50583 -0.52561,-1.27973 -0.79397,-1.71979 -0.46001,-0.75432 -0.48831,-1.73101 -0.49472,-17.07197 -0.008,-19.346 0.25786,-17.70668 -3.24143,-19.98045 -0.54851,-0.35641 -2.51304,-1.44216 -4.36562,-2.41278 -1.85259,-0.97061 -3.72553,-2.01998 -4.16209,-2.33193 -0.43656,-0.31195 -1.74625,-1.14526 -2.91042,-1.85181 -1.16416,-0.70654 -2.92472,-1.80774 -3.91235,-2.44712 -0.98762,-0.63937 -1.99966,-1.24043 -2.24896,-1.33569 -0.46325,-0.17701 -3.869323,-2.38502 -5.709547,-3.70126 -0.562618,-0.40242 -1.697583,-1.08885 -2.522144,-1.52542 -0.82456,-0.43656 -1.99898,-1.12117 -2.60982,-1.52135 -0.610841,-0.40018 -1.202664,-0.7276 -1.315162,-0.7276 -0.112496,0 -0.790665,-0.41672 -1.507038,-0.92605 -0.716372,-0.50932 -1.403154,-0.92604 -1.52618,-0.92604 -0.123026,0 -0.712025,-0.32317 -1.308888,-0.71815 -1.5099,-0.99921 -3.383269,-0.99886 -4.851847,7.9e-4 l -1.053608,0.71736 H 35.923903 -8.0091184 l -1.8446185,-0.88866 c -2.9555971,-1.42389 -4.5577911,-3.41644 -6.5793291,-8.18229 -0.378986,-0.89348 -0.424665,-3.49558 -0.424665,-24.19089 V 88.464522 l 1.468589,-2.98607 c 1.266108,-2.57437 1.710998,-3.20486 3.226781,-4.57291 0.977149,-0.88191 2.117182,-1.66297 2.5663071,-1.75822 0.444463,-0.0943 1.0289636,-0.3665 1.2988905,-0.60496 0.4497305,-0.39732 4.0881883,-0.43931 43.5045164,-0.50209 41.459302,-0.066 43.047908,-0.0508 43.959222,0.42257 0.520015,0.2701 1.394627,0.57471 1.943585,0.67693 0.631951,0.11766 1.484484,0.61781 2.323935,1.36336 0.739003,0.65634 1.590908,1.17753 1.92472,1.17753 0.32939,0 1.426741,-0.54724 2.438564,-1.2161 1.011822,-0.66885 2.094341,-1.31572 2.405596,-1.43748 0.311256,-0.12177 0.977834,-0.58306 1.481283,-1.02509 0.503452,-0.44204 1.485067,-1.0479 2.181368,-1.34637 0.696304,-0.29847 1.696601,-0.87406 2.222884,-1.27908 0.526282,-0.40503 1.849847,-1.25706 2.941253,-1.89341 1.091407,-0.63635 2.877347,-1.71908 3.968747,-2.40606 1.09141,-0.68699 2.91659,-1.82667 4.05595,-2.53263 1.13936,-0.70597 2.94219,-1.84912 4.00628,-2.54034 1.06409,-0.69123 2.03901,-1.25677 2.16649,-1.25677 0.12748,0 0.7059,-0.322571 1.28539,-0.716821 0.57948,-0.394248 1.58938,-0.998321 2.24423,-1.342385 0.65484,-0.344064 1.63012,-0.973994 2.16729,-1.399849 0.53717,-0.425855 1.08427,-0.774282 1.21577,-0.774282 0.1315,0 0.4659,-0.250516 0.74312,-0.556699 0.48115,-0.531434 0.51003,-1.302909 0.63632,-16.999479 l 0.13229,-16.442779 0.72833,-1.455208 c 0.73836,-1.475245 1.72947,-3.012757 2.36322,-3.666069 1.18072,-1.217173 3.11832,-2.479204 4.36095,-2.840445 0.79094,-0.229933 1.75942,-0.585705 2.15216,-0.790601 0.60509,-0.315677 7.02707,-0.37279 42.0734,-0.374171 l 41.35932,-0.0016 2.76187,0.914476 c 4.11737,1.363295 6.28984,3.43875 7.74854,7.402523 l 0.68797,1.869459 0.005,23.812498 0.005,23.812502 -0.64247,1.5875 c -0.82794,2.04575 -3.3014,5.60389 -4.06078,5.84152 -0.32341,0.1012 -0.91895,0.46063 -1.32342,0.79874 -0.40446,0.3381 -1.17716,0.6976 -1.71711,0.79889 -0.53995,0.1013 -1.45918,0.40108 -2.04273,0.66618 -1.01179,0.45964 -2.98203,0.48223 -42.4683,0.48683 -39.65526,0.005 -41.44088,-0.0157 -42.20104,-0.47909 -0.43656,-0.26614 -1.32554,-0.56888 -1.9755,-0.67275 -1.6344,-0.26119 -3.67843,-1.69711 -5.23458,-3.67727 -2.39341,-3.04556 -2.64984,-3.90302 -2.75911,-9.22592 -0.0753,-3.66701 -0.1441,-4.20521 -0.60257,-4.71134 -0.62091,-0.68546 -1.52413,-0.55255 -2.52512,0.37158 -0.3638,0.33587 -1.09062,0.74761 -1.61515,0.91498 -0.52453,0.16738 -1.46531,0.74225 -2.09064,1.2775 -0.62532,0.53525 -1.73073,1.24829 -2.45648,1.58454 -0.72575,0.33624 -1.71529,0.95882 -2.19898,1.38351 -0.48369,0.42468 -1.42912,1.0153 -2.10096,1.31249 -0.67184,0.29718 -1.71226,0.9298 -2.31205,1.40581 -1.19986,0.95224 -1.11159,0.89538 -4.01383,2.58526 -2.427053,1.41318 -4.123858,2.45855 -5.569197,3.43106 -0.582083,0.39166 -1.675548,1.01448 -2.429922,1.38405 -0.754373,0.36957 -1.706872,0.93234 -2.116667,1.25061 -0.409792,0.31827 -1.16006,0.84342 -1.667264,1.16702 -0.507203,0.32359 -1.070993,0.88243 -1.252871,1.24186 -0.257326,0.50855 -0.331549,6.06992 -0.334584,25.069828 -0.0034,21.09873 -0.05783,24.54537 -0.400775,25.36616 -0.218281,0.52243 -0.396875,1.39641 -0.396875,1.94218 0,0.83638 0.186182,1.16394 1.184714,2.08436 0.651592,0.60062 1.351389,1.09203 1.555102,1.09203 0.203716,0 0.52111,0.1816 0.705324,0.40357 0.18421,0.22196 1.300117,0.88883 2.479791,1.48194 1.179674,0.5931 2.289857,1.1968 2.467078,1.34155 0.53894,0.4402 3.300494,2.06461 3.509915,2.06461 0.107881,0 0.645607,0.35718 1.194951,0.79375 0.54934,0.43656 1.10833,0.79375 1.24219,0.79375 0.13386,0 0.98069,0.50764 1.88184,1.12809 2.43805,1.6786 4.72823,3.01241 5.47814,3.19048 0.36558,0.0868 1.29803,0.69845 2.07213,1.35921 0.7741,0.66076 1.61435,1.20138 1.86723,1.20138 0.25288,0 1.09809,0.47625 1.87826,1.05833 0.78017,0.58209 1.52238,1.05834 1.64937,1.05834 0.12698,0 1.05164,0.53578 2.0548,1.19062 1.99941,1.30518 2.79473,1.45087 3.741,0.68525 0.5862,-0.47429 0.63409,-0.73061 0.77858,-4.16719 0.14823,-3.52545 0.18883,-3.73077 1.0903,-5.51389 1.7367,-3.43519 4.55784,-5.91336 7.54406,-6.62691 1.26779,-0.30294 8.65908,-0.36732 43.07011,-0.37512 45.58257,-0.0103 43.86907,-0.068 46.40918,1.56197 1.40564,0.90199 4.0455,3.48246 4.82972,4.72105 0.99027,1.56402 1.08901,3.73749 1.19858,26.38359 0.0934,19.30539 0.055,22.2414 -0.31754,24.28448 -0.79541,4.36203 -1.65707,5.77767 -5.03897,8.27871 -3.2359,2.39306 0.17077,2.23354 -46.94877,2.19842 -33.33622,-0.0248 -41.48244,-0.0983 -42.93317,-0.38706 z m 85.94078,-5.31471 c 0.58914,-0.31541 1.69047,-1.15492 2.4474,-1.86556 l 1.37624,-1.29208 v -24.80254 -24.80253 l -1.23435,-1.31962 c -0.6789,-0.7258 -1.81977,-1.61366 -2.53528,-1.97304 l -1.30093,-0.65342 h -41.24429 c -35.30438,0 -41.36941,0.0548 -42.11315,0.38071 -0.47788,0.20939 -1.18181,0.44615 -1.56428,0.52612 -0.38247,0.08 -1.36473,0.80414 -2.18281,1.60925 l -1.48741,1.46384 v 24.08672 24.08673 l 0.68671,1.24154 c 0.37769,0.68285 0.94324,1.52102 1.25677,1.8626 0.70737,0.77065 2.38652,1.65901 3.61277,1.91133 0.50932,0.10481 19.44026,0.1732 42.06875,0.152 l 41.1427,-0.0386 z M 79.864557,137.83847 c 0.503883,-0.5457 1.182423,-1.52797 1.507865,-2.18281 l 0.591717,-1.19063 V 111.57857 88.692122 l -0.59464,-1.20663 c -0.68979,-1.3997 -1.736995,-2.47746 -2.796021,-2.87758 -0.514898,-0.19454 -13.770335,-0.28142 -42.939185,-0.28142 -41.5111842,0 -42.2109594,0.008 -43.2198662,0.52318 -1.2958937,0.66112 -2.0455287,1.70888 -2.3959617,3.34883 -0.1816261,0.84998 -0.2503271,9.01826 -0.2022051,24.041528 l 0.07288,22.75417 0.6082361,1.31962 c 0.33453,0.72579 0.8613,1.58899 1.1705998,1.91823 l 0.5623633,0.59861 H 35.589377 78.948411 Z M 217.57861,78.407512 c 0.50079,-0.41778 1.29479,-1.37028 1.76444,-2.11667 l 0.85392,-1.35706 0.006,-23.36586 0.006,-23.365861 -0.66113,-1.397524 c -0.7525,-1.590659 -1.13777,-1.98597 -2.70176,-2.772214 l -1.11395,-0.559993 h -42.14764 -42.14764 l -1.65053,1.078458 c -0.9078,0.59315 -1.82954,1.334018 -2.04832,1.646372 -0.34704,0.495477 -0.39778,3.697986 -0.39778,25.10855 v 24.540632 l 1.53526,1.569 c 0.84439,0.86294 1.82666,1.62438 2.18281,1.69208 0.35616,0.0677 19.76407,0.10884 43.1287,0.0914 l 42.48114,-0.0317 z"
       id="path26" />
    <path
       style="fill:#f9ec00;stroke-width:0.264583"
       d="m 132.76414,210.53274 c -0.43656,-0.11109 -1.21374,-0.21607 -1.72707,-0.23328 -2.01305,-0.0675 -6.40745,-4.10187 -7.95951,-7.30735 l -0.89676,-1.85208 -0.13229,-16.68069 c -0.14789,-18.64803 -0.0254,-17.53617 -2.05439,-18.64563 -0.54357,-0.29722 -2.00035,-1.14599 -3.23727,-1.88614 -1.23693,-0.74015 -2.78474,-1.58858 -3.43959,-1.88539 -0.65484,-0.29681 -1.78868,-0.98119 -2.51965,-1.52084 -0.73096,-0.53964 -1.84251,-1.26527 -2.47011,-1.61249 -0.6276,-0.34723 -1.48521,-0.82323 -1.90581,-1.05778 -0.4206,-0.23455 -1.39265,-0.85809 -2.1601,-1.38564 -0.76745,-0.52755 -1.89744,-1.22862 -2.51109,-1.55792 -1.60029,-0.85877 -5.899266,-3.61003 -6.754203,-4.32257 -0.3994,-0.33287 -0.987328,-0.68811 -1.30651,-0.78941 -0.319183,-0.10131 -1.392605,-0.70484 -2.385383,-1.3412 -0.99278,-0.63635 -1.913763,-1.15701 -2.046629,-1.15701 -0.132868,0 -0.578135,-0.27212 -0.98948,-0.60472 -1.357017,-1.09722 -4.014904,-2.3061 -5.051253,-2.29744 -0.575241,0.005 -1.43066,0.2807 -2.046653,0.66011 l -1.058333,0.65184 -44.141068,0.001 -44.1410654,0.001 -1.8812106,-0.82567 c -3.1802,-1.3958 -5.226925,-3.76793 -6.953159,-8.05863 l -0.647034,-1.60826 8.2e-4,-23.65945 8.21e-4,-23.659438 0.893522,-1.7739 c 0.491437,-0.97565 0.973539,-2.09272 1.071338,-2.48238 0.224585,-0.89482 4.243201,-4.82918 5.155921,-5.04782 0.375538,-0.09 1.1695071,-0.44436 1.7643753,-0.78755 l 1.0815687,-0.62398 H 35.495662 78.67444 l 1.247973,0.62538 c 0.686388,0.34396 1.673918,0.70269 2.194513,0.79718 0.611092,0.11091 1.236011,0.49876 1.76336,1.09441 0.995302,1.12421 1.637829,1.14732 3.243228,0.11662 0.654844,-0.42043 1.726406,-1.05413 2.38125,-1.40823 0.654844,-0.3541 1.476023,-0.9498 1.824844,-1.32378 0.348822,-0.37398 1.063197,-0.81704 1.5875,-0.98457 0.524304,-0.16752 1.548593,-0.74447 2.276197,-1.2821 0.727604,-0.53763 1.501511,-1.05773 1.719792,-1.15577 0.218281,-0.0981 1.139179,-0.62588 2.046443,-1.17297 0.907262,-0.54709 2.63367,-1.58008 3.83646,-2.29553 1.20279,-0.71546 2.92045,-1.8054 3.81704,-2.42211 0.89658,-0.61671 1.87209,-1.19808 2.1678,-1.29193 0.29571,-0.0939 1.21129,-0.69373 2.03461,-1.33305 0.82332,-0.63933 1.85015,-1.23999 2.28184,-1.334806 0.4317,-0.09481 0.84672,-0.333502 0.92228,-0.530418 0.0756,-0.196916 0.99026,-0.791011 2.03265,-1.320207 1.04239,-0.529199 2.10706,-1.189022 2.36595,-1.466279 0.25888,-0.277256 0.82009,-0.684784 1.24714,-0.905618 l 0.77645,-0.401518 0.0758,-16.203911 0.0758,-16.203913 0.61619,-1.455209 c 0.33891,-0.800364 0.87711,-1.812395 1.19601,-2.248958 0.31889,-0.436562 0.7522,-1.132125 0.9629,-1.545696 0.2107,-0.413573 0.84325,-1.068416 1.40566,-1.455208 0.56242,-0.386794 1.38165,-0.99165 1.82053,-1.344123 0.43887,-0.352475 1.35172,-0.793419 2.02854,-0.979879 0.67683,-0.186457 1.70684,-0.517922 2.28892,-0.736587 0.92517,-0.347543 6.302,-0.397571 42.73021,-0.397571 36.49604,0 41.80332,0.04956 42.73021,0.399 0.58208,0.219448 1.79981,0.614217 2.70607,0.877263 1.04767,0.304086 1.95726,0.780868 2.49763,1.309177 0.46743,0.457004 0.93782,0.830916 1.04531,0.830916 0.491,0 2.65812,3.326953 3.14443,4.827312 0.29504,0.910238 0.68346,1.893104 0.86316,2.184146 0.40684,0.658916 0.62198,45.930417 0.22632,47.624997 -0.47365,2.0286 -1.36034,3.96414 -2.82263,6.16147 -1.1199,1.68283 -1.70617,2.30994 -2.44961,2.62025 -0.53754,0.22437 -1.26148,0.69176 -1.60874,1.03864 -0.34727,0.34687 -0.94258,0.6333 -1.32292,0.63649 -0.38034,0.003 -1.21054,0.24132 -1.84489,0.52917 -1.13388,0.51451 -1.865,0.52321 -43.25938,0.51494 -36.01848,-0.007 -42.17797,-0.0629 -42.60382,-0.38534 -0.27379,-0.20731 -1.10723,-0.50909 -1.85208,-0.67063 -3.03535,-0.65828 -6.63867,-4.33768 -7.96459,-8.13275 -0.59269,-1.69641 -0.66572,-2.3251 -0.66572,-5.73124 0,-2.48656 -0.10142,-3.88849 -0.28973,-4.00488 -0.15936,-0.0985 -0.63776,0.0782 -1.0631,0.39271 -0.42536,0.31447 -1.32918,0.81002 -2.00849,1.10121 -0.67932,0.29119 -1.73177,0.98723 -2.33878,1.54675 -0.60702,0.55952 -1.46224,1.09607 -1.9005,1.19233 -0.43827,0.0963 -1.40008,0.68993 -2.13738,1.31927 -0.73729,0.62934 -1.66955,1.22683 -2.07169,1.32776 -0.40213,0.10094 -1.72573,0.8599 -2.94133,1.6866 -2.47448,1.68284 -4.63012,3.04375 -5.62191,3.54926 -0.582129,0.29671 -2.569441,1.56291 -5.570474,3.5492 -0.517144,0.34228 -1.078551,0.62233 -1.247564,0.62233 -0.169016,0 -0.698399,0.34113 -1.176403,0.75805 -0.478007,0.41693 -1.121291,0.83669 -1.429523,0.9328 -0.308229,0.0961 -0.784479,0.42228 -1.058333,0.72482 -0.478118,0.5282 -0.503174,1.54774 -0.630206,25.644688 -0.103216,19.57927 -0.20498,25.1673 -0.463021,25.42526 -0.65301,0.65281 -0.379928,1.70753 0.683895,2.6414 1.089126,0.95609 1.631426,1.29773 4.983639,3.13965 1.191792,0.65484 3.314988,1.905 4.718219,2.77812 2.767611,1.72208 3.303451,2.05001 6.246891,3.82309 1.07488,0.64749 2.23777,1.39123 2.58419,1.65275 0.34642,0.26152 1.06533,0.59275 1.59757,0.73607 0.53225,0.14332 1.59799,0.79857 2.36831,1.45611 0.77033,0.65753 1.62486,1.19552 1.89896,1.19552 0.27409,0 0.91943,0.36971 1.43408,0.82159 0.51465,0.45186 1.51982,1.13647 2.23371,1.52135 0.71389,0.38487 1.85943,1.0471 2.54565,1.47161 1.9241,1.1903 2.07828,0.96376 2.25486,-3.31314 0.14311,-3.46633 0.16924,-3.59023 1.19062,-5.64497 1.85472,-3.7312 5.03858,-6.55275 8.12369,-7.19925 2.37341,-0.49736 84.68079,-0.50127 87.24636,-0.004 2.1315,0.41302 4.3268,1.83711 6.47061,4.19749 2.03923,2.24524 2.39709,3.05722 2.75049,6.24073 0.3939,3.54839 0.41725,44.67754 0.0268,47.15249 -0.68195,4.32233 -2.13573,6.60878 -5.782,9.09372 -1.49569,1.01932 -2.29034,1.36473 -3.80366,1.65334 -1.57934,0.3012 -9.13443,0.35942 -43.32025,0.33383 -22.77401,-0.017 -41.76448,-0.12188 -42.20104,-0.23296 z"
       id="path34" />
    <path
       style="fill:#fa7c25;stroke-width:0.264583"
       d="m 132.76414,210.53274 c -0.43656,-0.11109 -1.21374,-0.21607 -1.72707,-0.23328 -2.01305,-0.0675 -6.40745,-4.10187 -7.95951,-7.30735 l -0.89676,-1.85208 -0.13229,-16.68069 c -0.14789,-18.64803 -0.0254,-17.53617 -2.05439,-18.64563 -0.54357,-0.29722 -2.00035,-1.14599 -3.23727,-1.88614 -1.23693,-0.74015 -2.78474,-1.58858 -3.43959,-1.88539 -0.65484,-0.29681 -1.78868,-0.98119 -2.51965,-1.52084 -0.73096,-0.53964 -1.84251,-1.26527 -2.47011,-1.61249 -0.6276,-0.34723 -1.48521,-0.82323 -1.90581,-1.05778 -0.4206,-0.23455 -1.39265,-0.85809 -2.1601,-1.38564 -0.76745,-0.52755 -1.89744,-1.22862 -2.51109,-1.55792 -1.60029,-0.85877 -5.899266,-3.61003 -6.754203,-4.32257 -0.3994,-0.33287 -0.987328,-0.68811 -1.30651,-0.78941 -0.319183,-0.10131 -1.392605,-0.70484 -2.385383,-1.3412 -0.99278,-0.63635 -1.913763,-1.15701 -2.046629,-1.15701 -0.132868,0 -0.578135,-0.27212 -0.98948,-0.60472 -1.357017,-1.09722 -4.014904,-2.3061 -5.051253,-2.29744 -0.575241,0.005 -1.43066,0.2807 -2.046653,0.66011 l -1.058333,0.65184 -44.141068,0.001 -44.1410654,0.001 -1.8812106,-0.82567 c -3.1802,-1.3958 -5.226925,-3.76793 -6.953159,-8.05863 l -0.647034,-1.60826 8.2e-4,-23.65945 8.21e-4,-23.659438 0.893522,-1.7739 c 0.491437,-0.97565 0.973539,-2.09272 1.071338,-2.48238 0.224585,-0.89482 4.243201,-4.82918 5.155921,-5.04782 0.375538,-0.09 1.1695071,-0.44436 1.7643753,-0.78755 l 1.0815687,-0.62398 H 35.495662 78.67444 l 1.247973,0.62538 c 0.686388,0.34396 1.673918,0.70269 2.194513,0.79718 0.611092,0.11091 1.236011,0.49876 1.76336,1.09441 0.995302,1.12421 1.637829,1.14732 3.243228,0.11662 0.654844,-0.42043 1.726406,-1.05413 2.38125,-1.40823 0.654844,-0.3541 1.476023,-0.9498 1.824844,-1.32378 0.348822,-0.37398 1.063197,-0.81704 1.5875,-0.98457 0.524304,-0.16752 1.548593,-0.74447 2.276197,-1.2821 0.727604,-0.53763 1.501511,-1.05773 1.719792,-1.15577 0.218281,-0.0981 1.139179,-0.62588 2.046443,-1.17297 0.907262,-0.54709 2.63367,-1.58008 3.83646,-2.29553 1.20279,-0.71546 2.92045,-1.8054 3.81704,-2.42211 0.89658,-0.61671 1.87209,-1.19808 2.1678,-1.29193 0.29571,-0.0939 1.21129,-0.69373 2.03461,-1.33305 0.82332,-0.63933 1.85015,-1.23999 2.28184,-1.334806 0.4317,-0.09481 0.84672,-0.333502 0.92228,-0.530418 0.0756,-0.196916 0.99026,-0.791011 2.03265,-1.320207 1.04239,-0.529199 2.10706,-1.189022 2.36595,-1.466279 0.25888,-0.277256 0.82009,-0.684784 1.24714,-0.905618 l 0.77645,-0.401518 0.0758,-16.203911 0.0758,-16.203913 0.61619,-1.455209 c 0.33891,-0.800364 0.87711,-1.812395 1.19601,-2.248958 0.31889,-0.436562 0.7522,-1.132125 0.9629,-1.545696 0.2107,-0.413573 0.84325,-1.068416 1.40566,-1.455208 0.56242,-0.386794 1.38165,-0.99165 1.82053,-1.344123 0.43887,-0.352475 1.35172,-0.793419 2.02854,-0.979879 0.67683,-0.186457 1.70684,-0.517922 2.28892,-0.736587 0.92517,-0.347543 6.302,-0.397571 42.73021,-0.397571 36.49604,0 41.80332,0.04956 42.73021,0.399 0.58208,0.219448 1.79981,0.614217 2.70607,0.877263 1.04767,0.304086 1.95726,0.780868 2.49763,1.309177 0.46743,0.457004 0.93782,0.830916 1.04531,0.830916 0.491,0 2.65812,3.326953 3.14443,4.827312 0.29504,0.910238 0.68346,1.893104 0.86316,2.184146 0.40684,0.658916 0.62198,45.930417 0.22632,47.624997 -0.47365,2.0286 -1.36034,3.96414 -2.82263,6.16147 -1.1199,1.68283 -1.70617,2.30994 -2.44961,2.62025 -0.53754,0.22437 -1.26148,0.69176 -1.60874,1.03864 -0.34727,0.34687 -0.94258,0.6333 -1.32292,0.63649 -0.38034,0.003 -1.21054,0.24132 -1.84489,0.52917 -1.13388,0.51451 -1.865,0.52321 -43.25938,0.51494 -36.01848,-0.007 -42.17797,-0.0629 -42.60382,-0.38534 -0.27379,-0.20731 -1.10723,-0.50909 -1.85208,-0.67063 -3.03535,-0.65828 -6.63867,-4.33768 -7.96459,-8.13275 -0.59269,-1.69641 -0.66572,-2.3251 -0.66572,-5.73124 0,-2.48656 -0.10142,-3.88849 -0.28973,-4.00488 -0.15936,-0.0985 -0.63776,0.0782 -1.0631,0.39271 -0.42536,0.31447 -1.32918,0.81002 -2.00849,1.10121 -0.67932,0.29119 -1.73177,0.98723 -2.33878,1.54675 -0.60702,0.55952 -1.46224,1.09607 -1.9005,1.19233 -0.43827,0.0963 -1.40008,0.68993 -2.13738,1.31927 -0.73729,0.62934 -1.66955,1.22683 -2.07169,1.32776 -0.40213,0.10094 -1.72573,0.8599 -2.94133,1.6866 -2.47448,1.68284 -4.63012,3.04375 -5.62191,3.54926 -0.582129,0.29671 -2.569441,1.56291 -5.570474,3.5492 -0.517144,0.34228 -1.078551,0.62233 -1.247564,0.62233 -0.169016,0 -0.698399,0.34113 -1.176403,0.75805 -0.478007,0.41693 -1.121291,0.83669 -1.429523,0.9328 -0.308229,0.0961 -0.784479,0.42228 -1.058333,0.72482 -0.478118,0.5282 -0.503174,1.54774 -0.630206,25.644688 -0.103216,19.57927 -0.20498,25.1673 -0.463021,25.42526 -0.65301,0.65281 -0.379928,1.70753 0.683895,2.6414 1.089126,0.95609 1.631426,1.29773 4.983639,3.13965 1.191792,0.65484 3.314988,1.905 4.718219,2.77812 2.767611,1.72208 3.303451,2.05001 6.246891,3.82309 1.07488,0.64749 2.23777,1.39123 2.58419,1.65275 0.34642,0.26152 1.06533,0.59275 1.59757,0.73607 0.53225,0.14332 1.59799,0.79857 2.36831,1.45611 0.77033,0.65753 1.62486,1.19552 1.89896,1.19552 0.27409,0 0.91943,0.36971 1.43408,0.82159 0.51465,0.45186 1.51982,1.13647 2.23371,1.52135 0.71389,0.38487 1.85943,1.0471 2.54565,1.47161 1.9241,1.1903 2.07828,0.96376 2.25486,-3.31314 0.14311,-3.46633 0.16924,-3.59023 1.19062,-5.64497 1.85472,-3.7312 5.03858,-6.55275 8.12369,-7.19925 2.37341,-0.49736 84.68079,-0.50127 87.24636,-0.004 2.1315,0.41302 4.3268,1.83711 6.47061,4.19749 2.03923,2.24524 2.39709,3.05722 2.75049,6.24073 0.3939,3.54839 0.41725,44.67754 0.0268,47.15249 -0.68195,4.32233 -2.13573,6.60878 -5.782,9.09372 -1.49569,1.01932 -2.29034,1.36473 -3.80366,1.65334 -1.57934,0.3012 -9.13443,0.35942 -43.32025,0.33383 -22.77401,-0.017 -41.76448,-0.12188 -42.20104,-0.23296 z M 79.010969,137.4941 c 0.379537,-0.29855 0.990907,-1.14176 1.358598,-1.87382 l 0.668531,-1.33102 V 111.54804 88.806822 l -0.670751,-1.32366 c -0.382833,-0.75549 -1.035865,-1.54628 -1.521354,-1.8423 -0.835424,-0.50939 -1.602195,-0.51866 -42.970374,-0.51963 l -42.1197698,-9.9e-4 -1.0073111,0.58305 c -2.273834,1.31613 -2.189327,0.32102 -2.193919,25.834558 -0.0044,24.23954 -0.0042,24.24218 1.449548,25.81082 l 0.6378344,0.68824 H 35.481451 c 42.797662,0 42.840125,-5.3e-4 43.529518,-0.54281 z"
       id="path32" />
    <path
       style="fill:#0ccd43;stroke-width:0.264583"
       d="m 132.76414,210.53274 c -0.43656,-0.11109 -1.21374,-0.21607 -1.72707,-0.23328 -2.01305,-0.0675 -6.40745,-4.10187 -7.95951,-7.30735 l -0.89676,-1.85208 -0.13229,-16.68069 c -0.14789,-18.64803 -0.0254,-17.53617 -2.05439,-18.64563 -0.54357,-0.29722 -2.00035,-1.14599 -3.23727,-1.88614 -1.23693,-0.74015 -2.78474,-1.58858 -3.43959,-1.88539 -0.65484,-0.29681 -1.78868,-0.98119 -2.51965,-1.52084 -0.73096,-0.53964 -1.84251,-1.26527 -2.47011,-1.61249 -0.6276,-0.34723 -1.48521,-0.82323 -1.90581,-1.05778 -0.4206,-0.23455 -1.39265,-0.85809 -2.1601,-1.38564 -0.76745,-0.52755 -1.89744,-1.22862 -2.51109,-1.55792 -1.60029,-0.85877 -5.899266,-3.61003 -6.754203,-4.32257 -0.3994,-0.33287 -0.987328,-0.68811 -1.30651,-0.78941 -0.319183,-0.10131 -1.392605,-0.70484 -2.385383,-1.3412 -0.99278,-0.63635 -1.913763,-1.15701 -2.046629,-1.15701 -0.132868,0 -0.578135,-0.27212 -0.98948,-0.60472 -1.357017,-1.09722 -4.014904,-2.3061 -5.051253,-2.29744 -0.575241,0.005 -1.43066,0.2807 -2.046653,0.66011 l -1.058333,0.65184 -44.141068,0.001 -44.1410654,0.001 -1.8812106,-0.82567 c -3.1802,-1.3958 -5.226925,-3.76793 -6.953159,-8.05863 l -0.647034,-1.60826 8.2e-4,-23.65945 8.21e-4,-23.659438 0.893522,-1.7739 c 0.491437,-0.97565 0.973539,-2.09272 1.071338,-2.48238 0.224585,-0.89482 4.243201,-4.82918 5.155921,-5.04782 0.375538,-0.09 1.1695071,-0.44436 1.7643753,-0.78755 l 1.0815687,-0.62398 H 35.495662 78.67444 l 1.247973,0.62538 c 0.686388,0.34396 1.673918,0.70269 2.194513,0.79718 0.611092,0.11091 1.236011,0.49876 1.76336,1.09441 0.995302,1.12421 1.637829,1.14732 3.243228,0.11662 0.654844,-0.42043 1.726406,-1.05413 2.38125,-1.40823 0.654844,-0.3541 1.476023,-0.9498 1.824844,-1.32378 0.348822,-0.37398 1.063197,-0.81704 1.5875,-0.98457 0.524304,-0.16752 1.548593,-0.74447 2.276197,-1.2821 0.727604,-0.53763 1.501511,-1.05773 1.719792,-1.15577 0.218281,-0.0981 1.139179,-0.62588 2.046443,-1.17297 0.907262,-0.54709 2.63367,-1.58008 3.83646,-2.29553 1.20279,-0.71546 2.92045,-1.8054 3.81704,-2.42211 0.89658,-0.61671 1.87209,-1.19808 2.1678,-1.29193 0.29571,-0.0939 1.21129,-0.69373 2.03461,-1.33305 0.82332,-0.63933 1.85015,-1.23999 2.28184,-1.334806 0.4317,-0.09481 0.84672,-0.333502 0.92228,-0.530418 0.0756,-0.196916 0.99026,-0.791011 2.03265,-1.320207 1.04239,-0.529199 2.10706,-1.189022 2.36595,-1.466279 0.25888,-0.277256 0.82009,-0.684784 1.24714,-0.905618 l 0.77645,-0.401518 0.0758,-16.203911 0.0758,-16.203913 0.61619,-1.455209 c 0.33891,-0.800364 0.87711,-1.812395 1.19601,-2.248958 0.31889,-0.436562 0.7522,-1.132125 0.9629,-1.545696 0.2107,-0.413573 0.84325,-1.068416 1.40566,-1.455208 0.56242,-0.386794 1.38165,-0.99165 1.82053,-1.344123 0.43887,-0.352475 1.35172,-0.793419 2.02854,-0.979879 0.67683,-0.186457 1.70684,-0.517922 2.28892,-0.736587 0.92517,-0.347543 6.302,-0.397571 42.73021,-0.397571 36.49604,0 41.80332,0.04956 42.73021,0.399 0.58208,0.219448 1.79981,0.614217 2.70607,0.877263 1.04767,0.304086 1.95726,0.780868 2.49763,1.309177 0.46743,0.457004 0.93782,0.830916 1.04531,0.830916 0.491,0 2.65812,3.326953 3.14443,4.827312 0.29504,0.910238 0.68346,1.893104 0.86316,2.184146 0.40684,0.658916 0.62198,45.930417 0.22632,47.624997 -0.47365,2.0286 -1.36034,3.96414 -2.82263,6.16147 -1.1199,1.68283 -1.70617,2.30994 -2.44961,2.62025 -0.53754,0.22437 -1.26148,0.69176 -1.60874,1.03864 -0.34727,0.34687 -0.94258,0.6333 -1.32292,0.63649 -0.38034,0.003 -1.21054,0.24132 -1.84489,0.52917 -1.13388,0.51451 -1.865,0.52321 -43.25938,0.51494 -36.01848,-0.007 -42.17797,-0.0629 -42.60382,-0.38534 -0.27379,-0.20731 -1.10723,-0.50909 -1.85208,-0.67063 -3.03535,-0.65828 -6.63867,-4.33768 -7.96459,-8.13275 -0.59269,-1.69641 -0.66572,-2.3251 -0.66572,-5.73124 0,-2.48656 -0.10142,-3.88849 -0.28973,-4.00488 -0.15936,-0.0985 -0.63776,0.0782 -1.0631,0.39271 -0.42536,0.31447 -1.32918,0.81002 -2.00849,1.10121 -0.67932,0.29119 -1.73177,0.98723 -2.33878,1.54675 -0.60702,0.55952 -1.46224,1.09607 -1.9005,1.19233 -0.43827,0.0963 -1.40008,0.68993 -2.13738,1.31927 -0.73729,0.62934 -1.66955,1.22683 -2.07169,1.32776 -0.40213,0.10094 -1.72573,0.8599 -2.94133,1.6866 -2.47448,1.68284 -4.63012,3.04375 -5.62191,3.54926 -0.582129,0.29671 -2.569441,1.56291 -5.570474,3.5492 -0.517144,0.34228 -1.078551,0.62233 -1.247564,0.62233 -0.169016,0 -0.698399,0.34113 -1.176403,0.75805 -0.478007,0.41693 -1.121291,0.83669 -1.429523,0.9328 -0.308229,0.0961 -0.784479,0.42228 -1.058333,0.72482 -0.478118,0.5282 -0.503174,1.54774 -0.630206,25.644688 -0.103216,19.57927 -0.20498,25.1673 -0.463021,25.42526 -0.65301,0.65281 -0.379928,1.70753 0.683895,2.6414 1.089126,0.95609 1.631426,1.29773 4.983639,3.13965 1.191792,0.65484 3.314988,1.905 4.718219,2.77812 2.767611,1.72208 3.303451,2.05001 6.246891,3.82309 1.07488,0.64749 2.23777,1.39123 2.58419,1.65275 0.34642,0.26152 1.06533,0.59275 1.59757,0.73607 0.53225,0.14332 1.59799,0.79857 2.36831,1.45611 0.77033,0.65753 1.62486,1.19552 1.89896,1.19552 0.27409,0 0.91943,0.36971 1.43408,0.82159 0.51465,0.45186 1.51982,1.13647 2.23371,1.52135 0.71389,0.38487 1.85943,1.0471 2.54565,1.47161 1.9241,1.1903 2.07828,0.96376 2.25486,-3.31314 0.14311,-3.46633 0.16924,-3.59023 1.19062,-5.64497 1.85472,-3.7312 5.03858,-6.55275 8.12369,-7.19925 2.37341,-0.49736 84.68079,-0.50127 87.24636,-0.004 2.1315,0.41302 4.3268,1.83711 6.47061,4.19749 2.03923,2.24524 2.39709,3.05722 2.75049,6.24073 0.3939,3.54839 0.41725,44.67754 0.0268,47.15249 -0.68195,4.32233 -2.13573,6.60878 -5.782,9.09372 -1.49569,1.01932 -2.29034,1.36473 -3.80366,1.65334 -1.57934,0.3012 -9.13443,0.35942 -43.32025,0.33383 -22.77401,-0.017 -41.76448,-0.12188 -42.20104,-0.23296 z m 85.00618,-6.7387 c 1.32698,-0.69463 2.58957,-1.76002 3.31757,-2.79938 0.40764,-0.58199 0.44395,-2.59959 0.44395,-24.66518 0,-20.20398 -0.0596,-24.14514 -0.3743,-24.74582 -0.5577,-1.06454 -1.96581,-2.29196 -3.51951,-3.06787 l -1.38026,-0.6893 H 175.49 c -33.94073,0 -40.88741,0.0605 -41.48223,0.36151 -0.39296,0.19884 -1.13595,0.43767 -1.65109,0.53073 -0.6598,0.11921 -1.3636,0.60156 -2.38125,1.632 l -1.44463,1.46277 v 23.86952 23.86951 l 0.71674,1.19686 c 0.90331,1.50839 2.02369,2.58784 3.30831,3.18741 0.94411,0.44065 3.40016,0.46892 42.48427,0.4891 l 41.48223,0.0214 1.24797,-0.65328 z M 79.100496,137.8803 c 0.410837,-0.30441 1.104164,-1.19738 1.540727,-1.98437 l 0.79375,-1.4309 V 111.57857 88.692122 l -0.79375,-1.44106 c -0.484151,-0.87898 -1.154952,-1.65298 -1.719792,-1.98438 -0.923613,-0.54189 -1.036717,-0.54331 -43.127081,-0.54331 H -6.4066897 l -1.1169398,0.72616 c -2.2072534,1.43502 -2.0490114,-0.46553 -2.1298804,25.580668 -0.06371,20.52008 -0.02453,23.2742 0.347021,24.39284 0.4843226,1.45816 1.2776855,2.56044 2.0764469,2.88498 0.3073231,0.12487 19.689347,0.20425 43.071165,0.1764 l 42.512396,-0.0506 z"
       id="path30" />
    <path
       style="fill:#5e5e5e;stroke-width:0.264583"
       d="m 132.76414,210.53274 c -0.43656,-0.11109 -1.21374,-0.21607 -1.72707,-0.23328 -2.01305,-0.0675 -6.40745,-4.10187 -7.95951,-7.30735 l -0.89676,-1.85208 -0.13229,-16.68069 c -0.14789,-18.64803 -0.0254,-17.53617 -2.05439,-18.64563 -0.54357,-0.29722 -2.00035,-1.14599 -3.23727,-1.88614 -1.23693,-0.74015 -2.78474,-1.58858 -3.43959,-1.88539 -0.65484,-0.29681 -1.78868,-0.98119 -2.51965,-1.52084 -0.73096,-0.53964 -1.84251,-1.26527 -2.47011,-1.61249 -0.6276,-0.34723 -1.48521,-0.82323 -1.90581,-1.05778 -0.4206,-0.23455 -1.39265,-0.85809 -2.1601,-1.38564 -0.76745,-0.52755 -1.89744,-1.22862 -2.51109,-1.55792 -1.60029,-0.85877 -5.899266,-3.61003 -6.754203,-4.32257 -0.3994,-0.33287 -0.987328,-0.68811 -1.30651,-0.78941 -0.319183,-0.10131 -1.392605,-0.70484 -2.385383,-1.3412 -0.99278,-0.63635 -1.913763,-1.15701 -2.046629,-1.15701 -0.132868,0 -0.578135,-0.27212 -0.98948,-0.60472 -1.357017,-1.09722 -4.014904,-2.3061 -5.051253,-2.29744 -0.575241,0.005 -1.43066,0.2807 -2.046653,0.66011 l -1.058333,0.65184 -44.141068,0.001 -44.1410654,0.001 -1.8812106,-0.82567 c -3.1802,-1.3958 -5.226925,-3.76793 -6.953159,-8.05863 l -0.647034,-1.60826 8.2e-4,-23.65945 8.21e-4,-23.659438 0.893522,-1.7739 c 0.491437,-0.97565 0.973539,-2.09272 1.071338,-2.48238 0.224585,-0.89482 4.243201,-4.82918 5.155921,-5.04782 0.375538,-0.09 1.1695071,-0.44436 1.7643753,-0.78755 l 1.0815687,-0.62398 H 35.495662 78.67444 l 1.247973,0.62538 c 0.686388,0.34396 1.673918,0.70269 2.194513,0.79718 0.611092,0.11091 1.236011,0.49876 1.76336,1.09441 0.995302,1.12421 1.637829,1.14732 3.243228,0.11662 0.654844,-0.42043 1.726406,-1.05413 2.38125,-1.40823 0.654844,-0.3541 1.476023,-0.9498 1.824844,-1.32378 0.348822,-0.37398 1.063197,-0.81704 1.5875,-0.98457 0.524304,-0.16752 1.548593,-0.74447 2.276197,-1.2821 0.727604,-0.53763 1.501511,-1.05773 1.719792,-1.15577 0.218281,-0.0981 1.139179,-0.62588 2.046443,-1.17297 0.907262,-0.54709 2.63367,-1.58008 3.83646,-2.29553 1.20279,-0.71546 2.92045,-1.8054 3.81704,-2.42211 0.89658,-0.61671 1.87209,-1.19808 2.1678,-1.29193 0.29571,-0.0939 1.21129,-0.69373 2.03461,-1.33305 0.82332,-0.63933 1.85015,-1.23999 2.28184,-1.334806 0.4317,-0.09481 0.84672,-0.333502 0.92228,-0.530418 0.0756,-0.196916 0.99026,-0.791011 2.03265,-1.320207 1.04239,-0.529199 2.10706,-1.189022 2.36595,-1.466279 0.25888,-0.277256 0.82009,-0.684784 1.24714,-0.905618 l 0.77645,-0.401518 0.0758,-16.203911 0.0758,-16.203913 0.61619,-1.455209 c 0.33891,-0.800364 0.87711,-1.812395 1.19601,-2.248958 0.31889,-0.436562 0.7522,-1.132125 0.9629,-1.545696 0.2107,-0.413573 0.84325,-1.068416 1.40566,-1.455208 0.56242,-0.386794 1.38165,-0.99165 1.82053,-1.344123 0.43887,-0.352475 1.35172,-0.793419 2.02854,-0.979879 0.67683,-0.186457 1.70684,-0.517922 2.28892,-0.736587 0.92517,-0.347543 6.302,-0.397571 42.73021,-0.397571 36.49604,0 41.80332,0.04956 42.73021,0.399 0.58208,0.219448 1.79981,0.614217 2.70607,0.877263 1.04767,0.304086 1.95726,0.780868 2.49763,1.309177 0.46743,0.457004 0.93782,0.830916 1.04531,0.830916 0.491,0 2.65812,3.326953 3.14443,4.827312 0.29504,0.910238 0.68346,1.893104 0.86316,2.184146 0.40684,0.658916 0.62198,45.930417 0.22632,47.624997 -0.47365,2.0286 -1.36034,3.96414 -2.82263,6.16147 -1.1199,1.68283 -1.70617,2.30994 -2.44961,2.62025 -0.53754,0.22437 -1.26148,0.69176 -1.60874,1.03864 -0.34727,0.34687 -0.94258,0.6333 -1.32292,0.63649 -0.38034,0.003 -1.21054,0.24132 -1.84489,0.52917 -1.13388,0.51451 -1.865,0.52321 -43.25938,0.51494 -36.01848,-0.007 -42.17797,-0.0629 -42.60382,-0.38534 -0.27379,-0.20731 -1.10723,-0.50909 -1.85208,-0.67063 -3.03535,-0.65828 -6.63867,-4.33768 -7.96459,-8.13275 -0.59269,-1.69641 -0.66572,-2.3251 -0.66572,-5.73124 0,-2.48656 -0.10142,-3.88849 -0.28973,-4.00488 -0.15936,-0.0985 -0.63776,0.0782 -1.0631,0.39271 -0.42536,0.31447 -1.32918,0.81002 -2.00849,1.10121 -0.67932,0.29119 -1.73177,0.98723 -2.33878,1.54675 -0.60702,0.55952 -1.46224,1.09607 -1.9005,1.19233 -0.43827,0.0963 -1.40008,0.68993 -2.13738,1.31927 -0.73729,0.62934 -1.66955,1.22683 -2.07169,1.32776 -0.40213,0.10094 -1.72573,0.8599 -2.94133,1.6866 -2.47448,1.68284 -4.63012,3.04375 -5.62191,3.54926 -0.582129,0.29671 -2.569441,1.56291 -5.570474,3.5492 -0.517144,0.34228 -1.078551,0.62233 -1.247564,0.62233 -0.169016,0 -0.698399,0.34113 -1.176403,0.75805 -0.478007,0.41693 -1.121291,0.83669 -1.429523,0.9328 -0.308229,0.0961 -0.784479,0.42228 -1.058333,0.72482 -0.478118,0.5282 -0.503174,1.54774 -0.630206,25.644688 -0.103216,19.57927 -0.20498,25.1673 -0.463021,25.42526 -0.65301,0.65281 -0.379928,1.70753 0.683895,2.6414 1.089126,0.95609 1.631426,1.29773 4.983639,3.13965 1.191792,0.65484 3.314988,1.905 4.718219,2.77812 2.767611,1.72208 3.303451,2.05001 6.246891,3.82309 1.07488,0.64749 2.23777,1.39123 2.58419,1.65275 0.34642,0.26152 1.06533,0.59275 1.59757,0.73607 0.53225,0.14332 1.59799,0.79857 2.36831,1.45611 0.77033,0.65753 1.62486,1.19552 1.89896,1.19552 0.27409,0 0.91943,0.36971 1.43408,0.82159 0.51465,0.45186 1.51982,1.13647 2.23371,1.52135 0.71389,0.38487 1.85943,1.0471 2.54565,1.47161 1.9241,1.1903 2.07828,0.96376 2.25486,-3.31314 0.14311,-3.46633 0.16924,-3.59023 1.19062,-5.64497 1.85472,-3.7312 5.03858,-6.55275 8.12369,-7.19925 2.37341,-0.49736 84.68079,-0.50127 87.24636,-0.004 2.1315,0.41302 4.3268,1.83711 6.47061,4.19749 2.03923,2.24524 2.39709,3.05722 2.75049,6.24073 0.3939,3.54839 0.41725,44.67754 0.0268,47.15249 -0.68195,4.32233 -2.13573,6.60878 -5.782,9.09372 -1.49569,1.01932 -2.29034,1.36473 -3.80366,1.65334 -1.57934,0.3012 -9.13443,0.35942 -43.32025,0.33383 -22.77401,-0.017 -41.76448,-0.12188 -42.20104,-0.23296 z m 85.00618,-6.7387 c 1.32698,-0.69463 2.58957,-1.76002 3.31757,-2.79938 0.40764,-0.58199 0.44395,-2.59959 0.44395,-24.66518 0,-20.20398 -0.0596,-24.14514 -0.3743,-24.74582 -0.5577,-1.06454 -1.96581,-2.29196 -3.51951,-3.06787 l -1.38026,-0.6893 H 175.49 c -33.94073,0 -40.88741,0.0605 -41.48223,0.36151 -0.39296,0.19884 -1.13595,0.43767 -1.65109,0.53073 -0.6598,0.11921 -1.3636,0.60156 -2.38125,1.632 l -1.44463,1.46277 v 23.86952 23.86951 l 0.71674,1.19686 c 0.90331,1.50839 2.02369,2.58784 3.30831,3.18741 0.94411,0.44065 3.40016,0.46892 42.48427,0.4891 l 41.48223,0.0214 1.24797,-0.65328 z M 79.100496,137.8803 c 0.410837,-0.30441 1.104164,-1.19738 1.540727,-1.98437 l 0.79375,-1.4309 V 111.57857 88.692122 l -0.79375,-1.44106 c -0.484151,-0.87898 -1.154952,-1.65298 -1.719792,-1.98438 -0.923613,-0.54189 -1.036717,-0.54331 -43.127081,-0.54331 H -6.4066897 l -1.1169398,0.72616 c -2.2072534,1.43502 -2.0490114,-0.46553 -2.1298804,25.580668 -0.06371,20.52008 -0.02453,23.2742 0.347021,24.39284 0.4843226,1.45816 1.2776855,2.56044 2.0764469,2.88498 0.3073231,0.12487 19.689347,0.20425 43.071165,0.1764 l 42.512396,-0.0506 z M 217.57861,78.407512 c 0.50079,-0.41778 1.29479,-1.37028 1.76444,-2.11667 l 0.85392,-1.35706 0.006,-23.36586 0.006,-23.365861 -0.66113,-1.397524 c -0.7525,-1.590659 -1.13777,-1.98597 -2.70176,-2.772214 l -1.11395,-0.559993 h -42.14764 -42.14764 l -1.65053,1.078458 c -0.9078,0.59315 -1.82954,1.334018 -2.04832,1.646372 -0.34704,0.495477 -0.39778,3.697986 -0.39778,25.10855 v 24.540632 l 1.53526,1.569 c 0.84439,0.86294 1.82666,1.62438 2.18281,1.69208 0.35616,0.0677 19.76407,0.10884 43.1287,0.0914 l 42.48114,-0.0317 z"
       id="path28" />
  </g>
</svg>
